<svg xmlns="http://www.w3.org/2000/svg" viewBox="0 0 80 16"><g fill="none"><path d="M-8-4h96v24H-8z"/><path fill="#000" d="M36.266 13.974h2.873V8.03c0-3.14-2.003-4.807-4.413-4.807-1.595 0-2.8.692-3.668 1.65h-.39c-.655-.852-1.789-1.65-3.472-1.65-1.527 0-2.747.674-3.385 1.455h-.39V3.525h-2.676v10.449H23.6V8.51c0-1.864.55-2.502 2.463-2.502s2.444.638 2.444 2.502v5.463h2.874V8.51c0-1.864.531-2.502 2.445-2.502 1.915 0 2.445.638 2.445 2.502l-.004 5.463zM9.3 12.478c-.513-.372-.744-.922-.744-1.755 0-1.047.32-2.337.851-2.892.372-.373.903-.55 1.63-.55 1.028 0 2.286.27 2.817.816.355.355.515.851.515 1.543 0 .994-.284 2.395-.905 2.98-.354.32-.832.461-1.505.461-.92 0-2.076-.214-2.659-.603zm4.52 2.2l-.125.958 2.674.33 1.267-10.353-2.673-.329-.125 1.004h-.309c-.4-.709-1.472-1.668-3.492-1.668-2.817 0-4.89 2.076-5.263 4.913a6.892 6.892 0 0 0-.053.835c0 2.713 1.843 4.949 4.713 5.268.16.015.319.02.479.018 1.205 0 2.109-.514 2.57-.975h.336zm60.49-3.064c-2.144 0-2.853-.709-2.853-2.855 0-2.147.71-2.877 2.853-2.877 2.144 0 2.853.727 2.853 2.877 0 2.149-.709 2.855-2.853 2.855zm-13.75 0c-2.145 0-2.853-.709-2.853-2.855 0-2.147.708-2.877 2.852-2.877s2.854.727 2.854 2.877c0 2.149-.71 2.855-2.854 2.855zm-13.397 0c-2.143 0-2.852-.709-2.852-2.855 0-2.147.709-2.877 2.852-2.877s2.854.727 2.854 2.877c0 2.149-.71 2.855-2.854 2.855zM1.742 0L0 13.953l2.844.347L4.558.346 1.742 0zm75.545 12.963v1.01h2.675V3.526h-2.675v1.012h-.39c-.426-.568-1.506-1.313-2.963-1.313-3.19 0-5.368 2.427-5.368 5.535 0 3.107 2.179 5.517 5.368 5.517 1.454 0 2.534-.745 2.963-1.313h.39zM47.163 3.224c-3.544 0-5.74 2.427-5.74 5.535 0 3.107 2.196 5.517 5.74 5.517s5.747-2.413 5.747-5.517c0-3.105-2.198-5.535-5.747-5.535zm16.409 9.739v1.01h2.675V.12h-2.834v4.417h-.39c-.425-.568-1.383-1.313-2.835-1.313-3.19 0-5.37 2.427-5.37 5.535 0 3.107 2.18 5.517 5.37 5.517 1.452 0 2.586-.745 2.994-1.313h.39z"/></g></svg>